<mxfile host="app.diagrams.net" modified="2024-06-29T13:54:36.622Z" agent="Mozilla/5.0 (Macintosh; Intel Mac OS X 10_15_7) AppleWebKit/537.36 (KHTML, like Gecko) Chrome/126.0.0.0 Safari/537.36" etag="YFJiMp78GVJ3N-pNmf_y" version="24.6.3" type="github">
  <diagram name="ページ1" id="8YfrLEITf-X1WGla2qtM">
    <mxGraphModel dx="485" dy="569" grid="0" gridSize="10" guides="1" tooltips="1" connect="1" arrows="1" fold="1" page="0" pageScale="1" pageWidth="827" pageHeight="1169" math="0" shadow="0">
      <root>
        <mxCell id="0" />
        <mxCell id="1" parent="0" />
        <mxCell id="gk4707E4rScS77IMeXgw-24" value="shops" style="shape=table;startSize=30;container=1;collapsible=0;childLayout=tableLayout;fixedRows=1;rowLines=0;fontStyle=0;strokeColor=default;fontSize=16;" parent="1" vertex="1">
          <mxGeometry x="7" y="101" width="182" height="166.75" as="geometry" />
        </mxCell>
        <mxCell id="gk4707E4rScS77IMeXgw-25" value="" style="shape=tableRow;horizontal=0;startSize=0;swimlaneHead=0;swimlaneBody=0;top=0;left=0;bottom=0;right=0;collapsible=0;dropTarget=0;fillColor=none;points=[[0,0.5],[1,0.5]];portConstraint=eastwest;strokeColor=inherit;fontSize=16;" parent="gk4707E4rScS77IMeXgw-24" vertex="1">
          <mxGeometry y="30" width="182" height="39" as="geometry" />
        </mxCell>
        <mxCell id="gk4707E4rScS77IMeXgw-26" value="pk" style="shape=partialRectangle;html=1;whiteSpace=wrap;connectable=0;fillColor=none;top=0;left=0;bottom=0;right=0;overflow=hidden;pointerEvents=1;strokeColor=inherit;fontSize=16;" parent="gk4707E4rScS77IMeXgw-25" vertex="1">
          <mxGeometry width="40" height="39" as="geometry">
            <mxRectangle width="40" height="39" as="alternateBounds" />
          </mxGeometry>
        </mxCell>
        <UserObject label="&lt;font face=&quot;Arial&quot;&gt;&lt;span style=&quot;font-size: 13.3333px;&quot;&gt;shop_id&lt;/span&gt;&lt;/font&gt;" link="&lt;meta charset=&quot;utf-8&quot;&gt;&lt;table style=&quot;forced-color-adjust: none; color: rgb(0, 0, 0); font-style: normal; font-variant-ligatures: normal; font-variant-caps: normal; font-weight: 400; letter-spacing: normal; orphans: 2; text-align: left; text-transform: none; widows: 2; word-spacing: 0px; -webkit-text-stroke-width: 0px; white-space: normal; background-color: rgb(255, 255, 255); text-decoration-thickness: initial; text-decoration-style: initial; text-decoration-color: initial; table-layout: fixed; font-size: 10pt; font-family: Arial; width: 0px; border-collapse: collapse; border: none;&quot; xmlns=&quot;http://www.w3.org/1999/xhtml&quot; cellspacing=&quot;0&quot; cellpadding=&quot;0&quot; dir=&quot;ltr&quot; border=&quot;1&quot; data-sheets-root=&quot;1&quot; data-sheets-baot=&quot;1&quot;&gt;&lt;tbody style=&quot;forced-color-adjust: none;&quot;&gt;&lt;tr style=&quot;forced-color-adjust: none; height: 21px;&quot;&gt;&lt;td style=&quot;forced-color-adjust: none; overflow: hidden; padding: 2px 3px; vertical-align: bottom;&quot;&gt;shop_id&lt;/td&gt;&lt;/tr&gt;&lt;/tbody&gt;&lt;/table&gt;&lt;br class=&quot;Apple-interchange-newline&quot;&gt;" id="gk4707E4rScS77IMeXgw-27">
          <mxCell style="shape=partialRectangle;html=1;whiteSpace=wrap;connectable=0;fillColor=none;top=0;left=0;bottom=0;right=0;align=left;spacingLeft=6;overflow=hidden;strokeColor=inherit;fontSize=16;" parent="gk4707E4rScS77IMeXgw-25" vertex="1">
            <mxGeometry x="40" width="142" height="39" as="geometry">
              <mxRectangle width="142" height="39" as="alternateBounds" />
            </mxGeometry>
          </mxCell>
        </UserObject>
        <mxCell id="gk4707E4rScS77IMeXgw-28" value="" style="shape=tableRow;horizontal=0;startSize=0;swimlaneHead=0;swimlaneBody=0;top=0;left=0;bottom=0;right=0;collapsible=0;dropTarget=0;fillColor=none;points=[[0,0.5],[1,0.5]];portConstraint=eastwest;strokeColor=inherit;fontSize=16;" parent="gk4707E4rScS77IMeXgw-24" vertex="1">
          <mxGeometry y="69" width="182" height="30" as="geometry" />
        </mxCell>
        <mxCell id="gk4707E4rScS77IMeXgw-29" value="" style="shape=partialRectangle;html=1;whiteSpace=wrap;connectable=0;fillColor=none;top=0;left=0;bottom=0;right=0;overflow=hidden;strokeColor=inherit;fontSize=16;" parent="gk4707E4rScS77IMeXgw-28" vertex="1">
          <mxGeometry width="40" height="30" as="geometry">
            <mxRectangle width="40" height="30" as="alternateBounds" />
          </mxGeometry>
        </mxCell>
        <mxCell id="gk4707E4rScS77IMeXgw-30" value="shop_name&lt;div&gt;&lt;br&gt;&lt;/div&gt;" style="shape=partialRectangle;html=1;whiteSpace=wrap;connectable=0;fillColor=none;top=0;left=0;bottom=0;right=0;align=left;spacingLeft=6;overflow=hidden;strokeColor=inherit;fontSize=16;" parent="gk4707E4rScS77IMeXgw-28" vertex="1">
          <mxGeometry x="40" width="142" height="30" as="geometry">
            <mxRectangle width="142" height="30" as="alternateBounds" />
          </mxGeometry>
        </mxCell>
        <mxCell id="gk4707E4rScS77IMeXgw-31" value="" style="shape=tableRow;horizontal=0;startSize=0;swimlaneHead=0;swimlaneBody=0;top=0;left=0;bottom=0;right=0;collapsible=0;dropTarget=0;fillColor=none;points=[[0,0.5],[1,0.5]];portConstraint=eastwest;strokeColor=inherit;fontSize=16;" parent="gk4707E4rScS77IMeXgw-24" vertex="1">
          <mxGeometry y="99" width="182" height="28" as="geometry" />
        </mxCell>
        <mxCell id="gk4707E4rScS77IMeXgw-32" value="" style="shape=partialRectangle;html=1;whiteSpace=wrap;connectable=0;fillColor=none;top=0;left=0;bottom=0;right=0;overflow=hidden;strokeColor=inherit;fontSize=16;" parent="gk4707E4rScS77IMeXgw-31" vertex="1">
          <mxGeometry width="40" height="28" as="geometry">
            <mxRectangle width="40" height="28" as="alternateBounds" />
          </mxGeometry>
        </mxCell>
        <mxCell id="gk4707E4rScS77IMeXgw-33" value="shop_password&lt;div&gt;&lt;br&gt;&lt;/div&gt;" style="shape=partialRectangle;html=1;whiteSpace=wrap;connectable=0;fillColor=none;top=0;left=0;bottom=0;right=0;align=left;spacingLeft=6;overflow=hidden;strokeColor=inherit;fontSize=16;" parent="gk4707E4rScS77IMeXgw-31" vertex="1">
          <mxGeometry x="40" width="142" height="28" as="geometry">
            <mxRectangle width="142" height="28" as="alternateBounds" />
          </mxGeometry>
        </mxCell>
        <mxCell id="kyNRehrDDVJ1VQDftJ0J-7" value="users&#xa;" style="shape=table;startSize=30;container=1;collapsible=0;childLayout=tableLayout;fixedRows=1;rowLines=0;fontStyle=0;strokeColor=default;fontSize=16;" vertex="1" parent="1">
          <mxGeometry x="306" y="418" width="180" height="205" as="geometry" />
        </mxCell>
        <mxCell id="kyNRehrDDVJ1VQDftJ0J-8" value="" style="shape=tableRow;horizontal=0;startSize=0;swimlaneHead=0;swimlaneBody=0;top=0;left=0;bottom=0;right=0;collapsible=0;dropTarget=0;fillColor=none;points=[[0,0.5],[1,0.5]];portConstraint=eastwest;strokeColor=inherit;fontSize=16;" vertex="1" parent="kyNRehrDDVJ1VQDftJ0J-7">
          <mxGeometry y="30" width="180" height="30" as="geometry" />
        </mxCell>
        <mxCell id="kyNRehrDDVJ1VQDftJ0J-9" value="pk&lt;div&gt;&lt;br&gt;&lt;/div&gt;" style="shape=partialRectangle;html=1;whiteSpace=wrap;connectable=0;fillColor=none;top=0;left=0;bottom=0;right=0;overflow=hidden;pointerEvents=1;strokeColor=inherit;fontSize=16;" vertex="1" parent="kyNRehrDDVJ1VQDftJ0J-8">
          <mxGeometry width="40" height="30" as="geometry">
            <mxRectangle width="40" height="30" as="alternateBounds" />
          </mxGeometry>
        </mxCell>
        <mxCell id="kyNRehrDDVJ1VQDftJ0J-10" value="user_id&lt;div&gt;&lt;br&gt;&lt;/div&gt;&lt;div&gt;&lt;br&gt;&lt;/div&gt;" style="shape=partialRectangle;html=1;whiteSpace=wrap;connectable=0;fillColor=none;top=0;left=0;bottom=0;right=0;align=left;spacingLeft=6;overflow=hidden;strokeColor=inherit;fontSize=16;" vertex="1" parent="kyNRehrDDVJ1VQDftJ0J-8">
          <mxGeometry x="40" width="140" height="30" as="geometry">
            <mxRectangle width="140" height="30" as="alternateBounds" />
          </mxGeometry>
        </mxCell>
        <mxCell id="kyNRehrDDVJ1VQDftJ0J-11" value="" style="shape=tableRow;horizontal=0;startSize=0;swimlaneHead=0;swimlaneBody=0;top=0;left=0;bottom=0;right=0;collapsible=0;dropTarget=0;fillColor=none;points=[[0,0.5],[1,0.5]];portConstraint=eastwest;strokeColor=inherit;fontSize=16;" vertex="1" parent="kyNRehrDDVJ1VQDftJ0J-7">
          <mxGeometry y="60" width="180" height="32" as="geometry" />
        </mxCell>
        <mxCell id="kyNRehrDDVJ1VQDftJ0J-12" value="" style="shape=partialRectangle;html=1;whiteSpace=wrap;connectable=0;fillColor=none;top=0;left=0;bottom=0;right=0;overflow=hidden;strokeColor=inherit;fontSize=16;" vertex="1" parent="kyNRehrDDVJ1VQDftJ0J-11">
          <mxGeometry width="40" height="32" as="geometry">
            <mxRectangle width="40" height="32" as="alternateBounds" />
          </mxGeometry>
        </mxCell>
        <mxCell id="kyNRehrDDVJ1VQDftJ0J-13" value="name&lt;div&gt;&lt;br&gt;&lt;/div&gt;" style="shape=partialRectangle;html=1;whiteSpace=wrap;connectable=0;fillColor=none;top=0;left=0;bottom=0;right=0;align=left;spacingLeft=6;overflow=hidden;strokeColor=inherit;fontSize=16;" vertex="1" parent="kyNRehrDDVJ1VQDftJ0J-11">
          <mxGeometry x="40" width="140" height="32" as="geometry">
            <mxRectangle width="140" height="32" as="alternateBounds" />
          </mxGeometry>
        </mxCell>
        <mxCell id="kyNRehrDDVJ1VQDftJ0J-14" value="" style="shape=tableRow;horizontal=0;startSize=0;swimlaneHead=0;swimlaneBody=0;top=0;left=0;bottom=0;right=0;collapsible=0;dropTarget=0;fillColor=none;points=[[0,0.5],[1,0.5]];portConstraint=eastwest;strokeColor=inherit;fontSize=16;" vertex="1" parent="kyNRehrDDVJ1VQDftJ0J-7">
          <mxGeometry y="92" width="180" height="29" as="geometry" />
        </mxCell>
        <mxCell id="kyNRehrDDVJ1VQDftJ0J-15" value="" style="shape=partialRectangle;html=1;whiteSpace=wrap;connectable=0;fillColor=none;top=0;left=0;bottom=0;right=0;overflow=hidden;strokeColor=inherit;fontSize=16;" vertex="1" parent="kyNRehrDDVJ1VQDftJ0J-14">
          <mxGeometry width="40" height="29" as="geometry">
            <mxRectangle width="40" height="29" as="alternateBounds" />
          </mxGeometry>
        </mxCell>
        <mxCell id="kyNRehrDDVJ1VQDftJ0J-16" value="password&lt;div&gt;&lt;table style=&quot;table-layout: fixed; font-size: 10pt; font-family: Arial; width: 0px; border-collapse: collapse; border: none;&quot; xmlns=&quot;http://www.w3.org/1999/xhtml&quot; cellspacing=&quot;0&quot; cellpadding=&quot;0&quot; dir=&quot;ltr&quot; border=&quot;1&quot; data-sheets-root=&quot;1&quot; data-sheets-baot=&quot;1&quot;&gt;&lt;tbody&gt;&lt;tr style=&quot;height: 21px;&quot;&gt;&lt;td style=&quot;overflow: hidden; padding: 2px 3px; vertical-align: bottom;&quot;&gt;&lt;br class=&quot;Apple-interchange-newline&quot;&gt;e-mail&lt;br&gt;&lt;br&gt;&lt;/td&gt;&lt;/tr&gt;&lt;/tbody&gt;&lt;/table&gt;&lt;/div&gt;" style="shape=partialRectangle;html=1;whiteSpace=wrap;connectable=0;fillColor=none;top=0;left=0;bottom=0;right=0;align=left;spacingLeft=6;overflow=hidden;strokeColor=inherit;fontSize=16;" vertex="1" parent="kyNRehrDDVJ1VQDftJ0J-14">
          <mxGeometry x="40" width="140" height="29" as="geometry">
            <mxRectangle width="140" height="29" as="alternateBounds" />
          </mxGeometry>
        </mxCell>
        <mxCell id="kyNRehrDDVJ1VQDftJ0J-22" value="" style="shape=tableRow;horizontal=0;startSize=0;swimlaneHead=0;swimlaneBody=0;top=0;left=0;bottom=0;right=0;collapsible=0;dropTarget=0;fillColor=none;points=[[0,0.5],[1,0.5]];portConstraint=eastwest;strokeColor=inherit;fontSize=16;" vertex="1" parent="kyNRehrDDVJ1VQDftJ0J-7">
          <mxGeometry y="121" width="180" height="32" as="geometry" />
        </mxCell>
        <mxCell id="kyNRehrDDVJ1VQDftJ0J-23" value="" style="shape=partialRectangle;html=1;whiteSpace=wrap;connectable=0;fillColor=none;top=0;left=0;bottom=0;right=0;overflow=hidden;strokeColor=inherit;fontSize=16;" vertex="1" parent="kyNRehrDDVJ1VQDftJ0J-22">
          <mxGeometry width="40" height="32" as="geometry">
            <mxRectangle width="40" height="32" as="alternateBounds" />
          </mxGeometry>
        </mxCell>
        <mxCell id="kyNRehrDDVJ1VQDftJ0J-24" value="e-mail&lt;div&gt;&lt;br&gt;&lt;/div&gt;" style="shape=partialRectangle;html=1;whiteSpace=wrap;connectable=0;fillColor=none;top=0;left=0;bottom=0;right=0;align=left;spacingLeft=6;overflow=hidden;strokeColor=inherit;fontSize=16;" vertex="1" parent="kyNRehrDDVJ1VQDftJ0J-22">
          <mxGeometry x="40" width="140" height="32" as="geometry">
            <mxRectangle width="140" height="32" as="alternateBounds" />
          </mxGeometry>
        </mxCell>
        <mxCell id="kyNRehrDDVJ1VQDftJ0J-66" style="edgeStyle=none;curved=1;rounded=0;orthogonalLoop=1;jettySize=auto;html=1;exitX=0.5;exitY=1;exitDx=0;exitDy=0;fontSize=12;startSize=8;endSize=8;endArrow=ERzeroToMany;endFill=0;" edge="1" parent="1" source="kyNRehrDDVJ1VQDftJ0J-25">
          <mxGeometry relative="1" as="geometry">
            <mxPoint x="390" y="410" as="targetPoint" />
          </mxGeometry>
        </mxCell>
        <mxCell id="kyNRehrDDVJ1VQDftJ0J-25" value="masters" style="shape=table;startSize=30;container=1;collapsible=0;childLayout=tableLayout;fixedRows=1;rowLines=0;fontStyle=0;strokeColor=default;fontSize=16;" vertex="1" parent="1">
          <mxGeometry x="299" y="262.5" width="182" height="89.5" as="geometry" />
        </mxCell>
        <mxCell id="kyNRehrDDVJ1VQDftJ0J-26" value="" style="shape=tableRow;horizontal=0;startSize=0;swimlaneHead=0;swimlaneBody=0;top=0;left=0;bottom=0;right=0;collapsible=0;dropTarget=0;fillColor=none;points=[[0,0.5],[1,0.5]];portConstraint=eastwest;strokeColor=inherit;fontSize=16;" vertex="1" parent="kyNRehrDDVJ1VQDftJ0J-25">
          <mxGeometry y="30" width="182" height="29" as="geometry" />
        </mxCell>
        <mxCell id="kyNRehrDDVJ1VQDftJ0J-27" value="pk" style="shape=partialRectangle;html=1;whiteSpace=wrap;connectable=0;fillColor=none;top=0;left=0;bottom=0;right=0;overflow=hidden;pointerEvents=1;strokeColor=inherit;fontSize=16;" vertex="1" parent="kyNRehrDDVJ1VQDftJ0J-26">
          <mxGeometry width="40" height="29" as="geometry">
            <mxRectangle width="40" height="29" as="alternateBounds" />
          </mxGeometry>
        </mxCell>
        <mxCell id="kyNRehrDDVJ1VQDftJ0J-28" value="master_id" style="shape=partialRectangle;html=1;whiteSpace=wrap;connectable=0;fillColor=none;top=0;left=0;bottom=0;right=0;align=left;spacingLeft=6;overflow=hidden;strokeColor=inherit;fontSize=16;" vertex="1" parent="kyNRehrDDVJ1VQDftJ0J-26">
          <mxGeometry x="40" width="142" height="29" as="geometry">
            <mxRectangle width="142" height="29" as="alternateBounds" />
          </mxGeometry>
        </mxCell>
        <mxCell id="kyNRehrDDVJ1VQDftJ0J-32" value="" style="shape=tableRow;horizontal=0;startSize=0;swimlaneHead=0;swimlaneBody=0;top=0;left=0;bottom=0;right=0;collapsible=0;dropTarget=0;fillColor=none;points=[[0,0.5],[1,0.5]];portConstraint=eastwest;strokeColor=inherit;fontSize=16;" vertex="1" parent="kyNRehrDDVJ1VQDftJ0J-25">
          <mxGeometry y="59" width="182" height="30" as="geometry" />
        </mxCell>
        <mxCell id="kyNRehrDDVJ1VQDftJ0J-33" value="" style="shape=partialRectangle;html=1;whiteSpace=wrap;connectable=0;fillColor=none;top=0;left=0;bottom=0;right=0;overflow=hidden;strokeColor=inherit;fontSize=16;" vertex="1" parent="kyNRehrDDVJ1VQDftJ0J-32">
          <mxGeometry width="40" height="30" as="geometry">
            <mxRectangle width="40" height="30" as="alternateBounds" />
          </mxGeometry>
        </mxCell>
        <mxCell id="kyNRehrDDVJ1VQDftJ0J-34" value="" style="shape=partialRectangle;html=1;whiteSpace=wrap;connectable=0;fillColor=none;top=0;left=0;bottom=0;right=0;align=left;spacingLeft=6;overflow=hidden;strokeColor=inherit;fontSize=16;" vertex="1" parent="kyNRehrDDVJ1VQDftJ0J-32">
          <mxGeometry x="40" width="142" height="30" as="geometry">
            <mxRectangle width="142" height="30" as="alternateBounds" />
          </mxGeometry>
        </mxCell>
        <mxCell id="kyNRehrDDVJ1VQDftJ0J-35" value="items" style="shape=table;startSize=30;container=1;collapsible=0;childLayout=tableLayout;fixedRows=1;rowLines=0;fontStyle=0;strokeColor=default;fontSize=16;" vertex="1" parent="1">
          <mxGeometry x="306" y="108" width="180" height="122" as="geometry" />
        </mxCell>
        <mxCell id="kyNRehrDDVJ1VQDftJ0J-36" value="" style="shape=tableRow;horizontal=0;startSize=0;swimlaneHead=0;swimlaneBody=0;top=0;left=0;bottom=0;right=0;collapsible=0;dropTarget=0;fillColor=none;points=[[0,0.5],[1,0.5]];portConstraint=eastwest;strokeColor=inherit;fontSize=16;" vertex="1" parent="kyNRehrDDVJ1VQDftJ0J-35">
          <mxGeometry y="30" width="180" height="30" as="geometry" />
        </mxCell>
        <mxCell id="kyNRehrDDVJ1VQDftJ0J-37" value="pk" style="shape=partialRectangle;html=1;whiteSpace=wrap;connectable=0;fillColor=none;top=0;left=0;bottom=0;right=0;overflow=hidden;pointerEvents=1;strokeColor=inherit;fontSize=16;" vertex="1" parent="kyNRehrDDVJ1VQDftJ0J-36">
          <mxGeometry width="41" height="30" as="geometry">
            <mxRectangle width="41" height="30" as="alternateBounds" />
          </mxGeometry>
        </mxCell>
        <mxCell id="kyNRehrDDVJ1VQDftJ0J-38" value="item_id" style="shape=partialRectangle;html=1;whiteSpace=wrap;connectable=0;fillColor=none;top=0;left=0;bottom=0;right=0;align=left;spacingLeft=6;overflow=hidden;strokeColor=inherit;fontSize=16;" vertex="1" parent="kyNRehrDDVJ1VQDftJ0J-36">
          <mxGeometry x="41" width="139" height="30" as="geometry">
            <mxRectangle width="139" height="30" as="alternateBounds" />
          </mxGeometry>
        </mxCell>
        <mxCell id="kyNRehrDDVJ1VQDftJ0J-39" value="" style="shape=tableRow;horizontal=0;startSize=0;swimlaneHead=0;swimlaneBody=0;top=0;left=0;bottom=0;right=0;collapsible=0;dropTarget=0;fillColor=none;points=[[0,0.5],[1,0.5]];portConstraint=eastwest;strokeColor=inherit;fontSize=16;" vertex="1" parent="kyNRehrDDVJ1VQDftJ0J-35">
          <mxGeometry y="60" width="180" height="30" as="geometry" />
        </mxCell>
        <mxCell id="kyNRehrDDVJ1VQDftJ0J-40" value="" style="shape=partialRectangle;html=1;whiteSpace=wrap;connectable=0;fillColor=none;top=0;left=0;bottom=0;right=0;overflow=hidden;strokeColor=inherit;fontSize=16;" vertex="1" parent="kyNRehrDDVJ1VQDftJ0J-39">
          <mxGeometry width="41" height="30" as="geometry">
            <mxRectangle width="41" height="30" as="alternateBounds" />
          </mxGeometry>
        </mxCell>
        <mxCell id="kyNRehrDDVJ1VQDftJ0J-41" value="item" style="shape=partialRectangle;html=1;whiteSpace=wrap;connectable=0;fillColor=none;top=0;left=0;bottom=0;right=0;align=left;spacingLeft=6;overflow=hidden;strokeColor=inherit;fontSize=16;" vertex="1" parent="kyNRehrDDVJ1VQDftJ0J-39">
          <mxGeometry x="41" width="139" height="30" as="geometry">
            <mxRectangle width="139" height="30" as="alternateBounds" />
          </mxGeometry>
        </mxCell>
        <mxCell id="kyNRehrDDVJ1VQDftJ0J-42" value="" style="shape=tableRow;horizontal=0;startSize=0;swimlaneHead=0;swimlaneBody=0;top=0;left=0;bottom=0;right=0;collapsible=0;dropTarget=0;fillColor=none;points=[[0,0.5],[1,0.5]];portConstraint=eastwest;strokeColor=inherit;fontSize=16;" vertex="1" parent="kyNRehrDDVJ1VQDftJ0J-35">
          <mxGeometry y="90" width="180" height="32" as="geometry" />
        </mxCell>
        <mxCell id="kyNRehrDDVJ1VQDftJ0J-43" value="ek" style="shape=partialRectangle;html=1;whiteSpace=wrap;connectable=0;fillColor=none;top=0;left=0;bottom=0;right=0;overflow=hidden;strokeColor=inherit;fontSize=16;" vertex="1" parent="kyNRehrDDVJ1VQDftJ0J-42">
          <mxGeometry width="41" height="32" as="geometry">
            <mxRectangle width="41" height="32" as="alternateBounds" />
          </mxGeometry>
        </mxCell>
        <mxCell id="kyNRehrDDVJ1VQDftJ0J-44" value="shop_id INT" style="shape=partialRectangle;html=1;whiteSpace=wrap;connectable=0;fillColor=none;top=0;left=0;bottom=0;right=0;align=left;spacingLeft=6;overflow=hidden;strokeColor=inherit;fontSize=16;" vertex="1" parent="kyNRehrDDVJ1VQDftJ0J-42">
          <mxGeometry x="41" width="139" height="32" as="geometry">
            <mxRectangle width="139" height="32" as="alternateBounds" />
          </mxGeometry>
        </mxCell>
        <mxCell id="kyNRehrDDVJ1VQDftJ0J-45" value="Delivery Persons" style="shape=table;startSize=30;container=1;collapsible=0;childLayout=tableLayout;fixedRows=1;rowLines=0;fontStyle=0;strokeColor=default;fontSize=16;" vertex="1" parent="1">
          <mxGeometry x="10" y="340.5" width="180" height="136.25" as="geometry" />
        </mxCell>
        <mxCell id="kyNRehrDDVJ1VQDftJ0J-46" value="" style="shape=tableRow;horizontal=0;startSize=0;swimlaneHead=0;swimlaneBody=0;top=0;left=0;bottom=0;right=0;collapsible=0;dropTarget=0;fillColor=none;points=[[0,0.5],[1,0.5]];portConstraint=eastwest;strokeColor=inherit;fontSize=16;" vertex="1" parent="kyNRehrDDVJ1VQDftJ0J-45">
          <mxGeometry y="30" width="180" height="43" as="geometry" />
        </mxCell>
        <mxCell id="kyNRehrDDVJ1VQDftJ0J-47" value="pk" style="shape=partialRectangle;html=1;whiteSpace=wrap;connectable=0;fillColor=none;top=0;left=0;bottom=0;right=0;overflow=hidden;pointerEvents=1;strokeColor=inherit;fontSize=16;" vertex="1" parent="kyNRehrDDVJ1VQDftJ0J-46">
          <mxGeometry width="40" height="43" as="geometry">
            <mxRectangle width="40" height="43" as="alternateBounds" />
          </mxGeometry>
        </mxCell>
        <mxCell id="kyNRehrDDVJ1VQDftJ0J-48" value="person_id" style="shape=partialRectangle;html=1;whiteSpace=wrap;connectable=0;fillColor=none;top=0;left=0;bottom=0;right=0;align=left;spacingLeft=6;overflow=hidden;strokeColor=inherit;fontSize=16;" vertex="1" parent="kyNRehrDDVJ1VQDftJ0J-46">
          <mxGeometry x="40" width="140" height="43" as="geometry">
            <mxRectangle width="140" height="43" as="alternateBounds" />
          </mxGeometry>
        </mxCell>
        <mxCell id="kyNRehrDDVJ1VQDftJ0J-49" value="" style="shape=tableRow;horizontal=0;startSize=0;swimlaneHead=0;swimlaneBody=0;top=0;left=0;bottom=0;right=0;collapsible=0;dropTarget=0;fillColor=none;points=[[0,0.5],[1,0.5]];portConstraint=eastwest;strokeColor=inherit;fontSize=16;" vertex="1" parent="kyNRehrDDVJ1VQDftJ0J-45">
          <mxGeometry y="73" width="180" height="33" as="geometry" />
        </mxCell>
        <mxCell id="kyNRehrDDVJ1VQDftJ0J-50" value="&lt;span style=&quot;text-wrap: nowrap;&quot;&gt;ek&lt;/span&gt;" style="shape=partialRectangle;html=1;whiteSpace=wrap;connectable=0;fillColor=none;top=0;left=0;bottom=0;right=0;overflow=hidden;strokeColor=inherit;fontSize=16;" vertex="1" parent="kyNRehrDDVJ1VQDftJ0J-49">
          <mxGeometry width="40" height="33" as="geometry">
            <mxRectangle width="40" height="33" as="alternateBounds" />
          </mxGeometry>
        </mxCell>
        <mxCell id="kyNRehrDDVJ1VQDftJ0J-51" value="person_id" style="shape=partialRectangle;html=1;whiteSpace=wrap;connectable=0;fillColor=none;top=0;left=0;bottom=0;right=0;align=left;spacingLeft=6;overflow=hidden;strokeColor=inherit;fontSize=16;" vertex="1" parent="kyNRehrDDVJ1VQDftJ0J-49">
          <mxGeometry x="40" width="140" height="33" as="geometry">
            <mxRectangle width="140" height="33" as="alternateBounds" />
          </mxGeometry>
        </mxCell>
        <mxCell id="kyNRehrDDVJ1VQDftJ0J-52" value="" style="shape=tableRow;horizontal=0;startSize=0;swimlaneHead=0;swimlaneBody=0;top=0;left=0;bottom=0;right=0;collapsible=0;dropTarget=0;fillColor=none;points=[[0,0.5],[1,0.5]];portConstraint=eastwest;strokeColor=inherit;fontSize=16;" vertex="1" parent="kyNRehrDDVJ1VQDftJ0J-45">
          <mxGeometry y="106" width="180" height="30" as="geometry" />
        </mxCell>
        <mxCell id="kyNRehrDDVJ1VQDftJ0J-53" value="" style="shape=partialRectangle;html=1;whiteSpace=wrap;connectable=0;fillColor=none;top=0;left=0;bottom=0;right=0;overflow=hidden;strokeColor=inherit;fontSize=16;" vertex="1" parent="kyNRehrDDVJ1VQDftJ0J-52">
          <mxGeometry width="40" height="30" as="geometry">
            <mxRectangle width="40" height="30" as="alternateBounds" />
          </mxGeometry>
        </mxCell>
        <mxCell id="kyNRehrDDVJ1VQDftJ0J-54" value="" style="shape=partialRectangle;html=1;whiteSpace=wrap;connectable=0;fillColor=none;top=0;left=0;bottom=0;right=0;align=left;spacingLeft=6;overflow=hidden;strokeColor=inherit;fontSize=16;" vertex="1" parent="kyNRehrDDVJ1VQDftJ0J-52">
          <mxGeometry x="40" width="140" height="30" as="geometry">
            <mxRectangle width="140" height="30" as="alternateBounds" />
          </mxGeometry>
        </mxCell>
        <mxCell id="kyNRehrDDVJ1VQDftJ0J-55" style="edgeStyle=elbowEdgeStyle;rounded=0;orthogonalLoop=1;jettySize=auto;html=1;fontSize=12;startSize=8;endSize=8;endArrow=ERoneToMany;endFill=0;entryX=0;entryY=0.5;entryDx=0;entryDy=0;" edge="1" parent="1" target="kyNRehrDDVJ1VQDftJ0J-39">
          <mxGeometry relative="1" as="geometry">
            <mxPoint x="181" y="183" as="sourcePoint" />
            <mxPoint x="303" y="189" as="targetPoint" />
            <Array as="points">
              <mxPoint x="251" y="186" />
            </Array>
          </mxGeometry>
        </mxCell>
        <mxCell id="kyNRehrDDVJ1VQDftJ0J-60" style="edgeStyle=none;curved=1;rounded=0;orthogonalLoop=1;jettySize=auto;html=1;entryX=0.467;entryY=-0.045;entryDx=0;entryDy=0;entryPerimeter=0;fontSize=12;startSize=8;endSize=8;endArrow=ERzeroToMany;endFill=0;" edge="1" parent="1" source="gk4707E4rScS77IMeXgw-24" target="kyNRehrDDVJ1VQDftJ0J-45">
          <mxGeometry relative="1" as="geometry">
            <Array as="points">
              <mxPoint x="94" y="335" />
            </Array>
          </mxGeometry>
        </mxCell>
        <mxCell id="kyNRehrDDVJ1VQDftJ0J-63" style="edgeStyle=none;curved=1;rounded=0;orthogonalLoop=1;jettySize=auto;html=1;exitX=0;exitY=0.5;exitDx=0;exitDy=0;fontSize=12;startSize=8;endSize=8;endArrow=ERzeroToMany;endFill=0;" edge="1" parent="1" source="kyNRehrDDVJ1VQDftJ0J-32">
          <mxGeometry relative="1" as="geometry">
            <mxPoint x="191" y="236" as="targetPoint" />
          </mxGeometry>
        </mxCell>
        <mxCell id="kyNRehrDDVJ1VQDftJ0J-64" value="&lt;meta charset=&quot;utf-8&quot;&gt;&lt;span style=&quot;color: rgb(0, 0, 0); font-family: Helvetica; font-size: 16px; font-style: normal; font-variant-ligatures: normal; font-variant-caps: normal; font-weight: 400; letter-spacing: normal; orphans: 2; text-align: left; text-indent: 0px; text-transform: none; widows: 2; word-spacing: 0px; -webkit-text-stroke-width: 0px; white-space: normal; background-color: rgb(255, 255, 255); text-decoration-thickness: initial; text-decoration-style: initial; text-decoration-color: initial; display: inline !important; float: none;&quot;&gt;master_id&lt;/span&gt;" style="text;html=1;align=center;verticalAlign=middle;resizable=0;points=[];autosize=1;strokeColor=none;fillColor=none;fontSize=16;" vertex="1" parent="1">
          <mxGeometry x="50" y="231.5" width="88" height="31" as="geometry" />
        </mxCell>
        <mxCell id="kyNRehrDDVJ1VQDftJ0J-65" value="ek" style="text;html=1;align=center;verticalAlign=middle;resizable=0;points=[];autosize=1;strokeColor=none;fillColor=none;fontSize=16;" vertex="1" parent="1">
          <mxGeometry x="12.5" y="229.5" width="35" height="31" as="geometry" />
        </mxCell>
        <mxCell id="kyNRehrDDVJ1VQDftJ0J-67" value="&lt;span style=&quot;text-align: left; text-wrap: wrap;&quot;&gt;master_id&lt;/span&gt;xt" style="text;html=1;align=center;verticalAlign=middle;resizable=0;points=[];autosize=1;strokeColor=none;fillColor=none;fontSize=16;" vertex="1" parent="1">
          <mxGeometry x="342" y="575" width="101" height="31" as="geometry" />
        </mxCell>
        <mxCell id="kyNRehrDDVJ1VQDftJ0J-68" value="ek" style="text;html=1;align=center;verticalAlign=middle;resizable=0;points=[];autosize=1;strokeColor=none;fillColor=none;fontSize=16;" vertex="1" parent="1">
          <mxGeometry x="309.5" y="577.5" width="35" height="31" as="geometry" />
        </mxCell>
      </root>
    </mxGraphModel>
  </diagram>
</mxfile>
